<svg width="292" height="58" viewBox="0 0 292 58" fill="none" xmlns="http://www.w3.org/2000/svg">
<path d="M68.6987 39.7022V18.411C68.6987 17.2421 69.0406 16.3157 69.7205 15.6318C70.4004 14.948 71.3029 14.61 72.4281 14.61H77.0164V18.0134H73.7919C73.1239 18.0134 72.7899 18.3713 72.7899 19.0869V21.9894H77.6644V25.3928H72.7899V39.6943H68.7026L68.6987 39.7022Z" fill="black"/>
<path d="M87.0437 40.2032C85.2744 40.2032 83.7158 39.8255 82.364 39.074C81.0122 38.3226 79.9625 37.257 79.2111 35.8853C78.4596 34.5096 78.0819 32.9034 78.0819 31.0625V30.6331C78.0819 28.7684 78.4517 27.1581 79.1912 25.7944C79.9307 24.4306 80.9724 23.373 82.3083 22.6216C83.6482 21.8701 85.1869 21.4924 86.9324 21.4924C88.6778 21.4924 90.1569 21.8701 91.449 22.6216C92.7412 23.373 93.7432 24.4306 94.4588 25.7944C95.1745 27.1581 95.5324 28.7445 95.5324 30.5615V32.0326H82.2328C82.2805 33.4202 82.7696 34.5295 83.7039 35.3645C84.6343 36.1994 85.7833 36.6209 87.1431 36.6209C88.5029 36.6209 89.473 36.3267 90.1171 35.7422C90.7612 35.1577 91.2503 34.4937 91.5882 33.7542L94.9916 35.5116C94.6576 36.1557 94.1726 36.8435 93.5404 37.5711C92.9082 38.2987 92.0653 38.9229 91.0117 39.4358C89.9581 39.9487 88.6341 40.2072 87.0318 40.2072L87.0437 40.2032ZM82.2765 28.9115H91.3457C91.2503 27.7426 90.801 26.8082 90.0018 26.1164C89.2026 25.4246 88.1689 25.0787 86.9006 25.0787C85.6322 25.0787 84.5349 25.4246 83.7476 26.1164C82.9604 26.8082 82.4674 27.7426 82.2765 28.9115Z" fill="black"/>
<path d="M105.85 40.2032C104.081 40.2032 102.522 39.8255 101.17 39.074C99.8185 38.3226 98.7688 37.257 98.0174 35.8853C97.2659 34.5096 96.8882 32.9034 96.8882 31.0625V30.6331C96.8882 28.7684 97.2579 27.1581 97.9975 25.7944C98.737 24.4306 99.7787 23.373 101.115 22.6216C102.455 21.8701 103.993 21.4924 105.739 21.4924C107.484 21.4924 108.963 21.8701 110.255 22.6216C111.548 23.373 112.549 24.4306 113.265 25.7944C113.981 27.1581 114.339 28.7445 114.339 30.5615V32.0326H101.039C101.087 33.4202 101.576 34.5295 102.51 35.3645C103.441 36.1994 104.59 36.6209 105.949 36.6209C107.309 36.6209 108.279 36.3267 108.923 35.7422C109.567 35.1577 110.057 34.4937 110.394 33.7542L113.798 35.5116C113.464 36.1557 112.979 36.8435 112.347 37.5711C111.714 38.2987 110.872 38.9229 109.818 39.4358C108.764 39.9487 107.44 40.2072 105.838 40.2072L105.85 40.2032ZM101.079 28.9115H110.148C110.053 27.7426 109.603 26.8082 108.804 26.1164C108.005 25.4246 106.971 25.0787 105.703 25.0787C104.435 25.0787 103.337 25.4246 102.55 26.1164C101.763 26.8082 101.27 27.7426 101.079 28.9115Z" fill="black"/>
<path d="M123.996 40.2032C122.561 40.2032 121.225 39.8493 119.98 39.1456C118.736 38.4419 117.746 37.4081 117.006 36.0444C116.267 34.6806 115.897 33.0465 115.897 31.1341V30.5615C115.897 28.6491 116.267 27.011 117.006 25.6512C117.746 24.2875 118.732 23.2537 119.965 22.55C121.193 21.8462 122.541 21.4924 123.996 21.4924C125.094 21.4924 126.028 21.6236 126.791 21.886C127.555 22.1484 128.171 22.4824 128.636 22.8879C129.101 23.2935 129.467 23.7348 129.73 24.2159H130.338V14.61H134.425V39.7022H130.409V37.3723H129.801C129.372 38.088 128.712 38.7401 127.829 39.3245C126.946 39.909 125.666 40.2032 123.992 40.2032H123.996ZM125.213 36.6209C126.696 36.6209 127.924 36.1358 128.906 35.1696C129.885 34.2035 130.378 32.8238 130.378 31.0307V30.6729C130.378 28.8558 129.893 27.4722 128.926 26.514C127.96 25.5598 126.724 25.0787 125.217 25.0787C123.71 25.0787 122.497 25.5558 121.507 26.514C120.517 27.4682 120.02 28.8558 120.02 30.6729V31.0307C120.02 32.8238 120.517 34.2035 121.507 35.1696C122.497 36.1358 123.734 36.6209 125.217 36.6209H125.213Z" fill="black"/>
<path d="M147.343 40.2032C145.669 40.2032 144.385 39.909 143.49 39.3245C142.596 38.7401 141.944 38.088 141.538 37.3723H140.93V39.7022H136.878V14.61H141.001V24.2159H141.61C141.872 23.7388 142.238 23.2975 142.703 22.8879C143.168 22.4824 143.777 22.1484 144.532 21.886C145.283 21.6236 146.222 21.4924 147.347 21.4924C148.806 21.4924 150.142 21.8462 151.363 22.55C152.583 23.2537 153.561 24.2875 154.301 25.6512C155.04 27.015 155.41 28.6491 155.41 30.5615V31.1341C155.41 33.0465 155.04 34.6846 154.301 36.0444C153.561 37.4081 152.575 38.4419 151.343 39.1456C150.11 39.8493 148.778 40.2032 147.347 40.2032H147.343ZM146.122 36.6209C147.605 36.6209 148.834 36.1358 149.816 35.1696C150.794 34.2035 151.287 32.8238 151.287 31.0307V30.6729C151.287 28.8558 150.802 27.4722 149.836 26.514C148.87 25.5598 147.633 25.0787 146.126 25.0787C144.619 25.0787 143.407 25.5558 142.417 26.514C141.427 27.4682 140.93 28.8558 140.93 30.6729V31.0307C140.93 32.8238 141.427 34.2035 142.417 35.1696C143.407 36.1358 144.643 36.6209 146.126 36.6209H146.122Z" fill="url(#paint0_linear_3_2)"/>
<path d="M163.255 40.2032C162.01 40.2032 160.889 39.9805 159.887 39.5392C158.885 39.0979 158.09 38.4578 157.501 37.6228C156.917 36.7879 156.623 35.7581 156.623 34.5414C156.623 33.3248 156.917 32.3427 157.501 31.5316C158.086 30.7206 158.893 30.1043 159.923 29.6868C160.949 29.2693 162.122 29.0586 163.434 29.0586H168.559V27.9851C168.559 27.0547 168.272 26.2953 167.7 25.7109C167.127 25.1264 166.229 24.8322 165.012 24.8322C163.795 24.8322 162.917 25.1145 162.304 25.6751C161.696 26.2357 161.295 26.9593 161.104 27.842L157.303 26.5856C157.589 25.6552 158.05 24.8043 158.682 24.041C159.315 23.2776 160.157 22.6613 161.211 22.1961C162.261 21.7309 163.553 21.4964 165.084 21.4964C167.402 21.4964 169.223 22.0768 170.551 23.2338C171.879 24.3948 172.539 26.0727 172.539 28.2714V35.2253C172.539 35.941 172.873 36.2988 173.54 36.2988H175.047V39.7022H172.145C171.286 39.7022 170.578 39.4875 170.03 39.0581C169.481 38.6287 169.207 38.0443 169.207 37.3008V37.2292H168.598C168.455 37.5632 168.205 37.9687 167.847 38.4498C167.489 38.9269 166.944 39.3404 166.217 39.6863C165.489 40.0322 164.503 40.2072 163.259 40.2072L163.255 40.2032ZM163.935 36.8356C165.298 36.8356 166.408 36.4459 167.266 35.6706C168.125 34.8953 168.559 33.8496 168.559 32.5336V32.1758H163.684C162.801 32.1758 162.082 32.3666 161.533 32.7483C160.984 33.13 160.71 33.6906 160.71 34.4341C160.71 35.1776 160.996 35.7303 161.569 36.1716C162.141 36.6129 162.933 36.8356 163.935 36.8356Z" fill="url(#paint1_linear_3_2)"/>
<path d="M184.367 40.2032C182.645 40.2032 181.091 39.8454 179.707 39.1297C178.32 38.414 177.226 37.3723 176.427 36.0125C175.628 34.6488 175.226 33.0147 175.226 31.1023V30.6013C175.226 28.6889 175.628 27.0508 176.427 25.691C177.226 24.3272 178.32 23.2895 179.707 22.5738C181.095 21.8582 182.645 21.5003 184.367 21.5003C186.089 21.5003 187.516 21.7985 188.721 22.3949C189.925 22.9913 190.899 23.8104 191.643 24.8521C192.383 25.8898 192.864 27.0547 193.078 28.3469L189.098 29.1699C189.003 28.4304 188.776 27.7545 188.418 27.1462C188.061 26.5379 187.552 26.0528 186.896 25.695C186.24 25.3371 185.433 25.1582 184.474 25.1582C183.516 25.1582 182.618 25.3689 181.838 25.7864C181.063 26.2039 180.451 26.8321 180.009 27.667C179.568 28.502 179.345 29.5079 179.345 30.6768V31.0347C179.345 32.2076 179.564 33.2016 180.009 34.0285C180.451 34.8516 181.059 35.4798 181.838 35.9092C182.614 36.3386 183.492 36.5533 184.474 36.5533C185.934 36.5533 187.039 36.1756 187.79 35.4241C188.542 34.6727 189.015 33.6985 189.206 32.5018L193.186 33.4322C192.899 34.6766 192.386 35.8098 191.643 36.8356C190.903 37.8614 189.929 38.6804 188.721 39.2927C187.512 39.901 186.061 40.2072 184.367 40.2072V40.2032Z" fill="url(#paint2_linear_3_2)"/>
<path d="M194.569 39.7022V14.61H198.692V28.6968H199.301L205.682 21.9934H211.093L202.525 30.5615L211.38 39.7022H206.04L199.301 32.4978H198.692V39.7022H194.569Z" fill="url(#paint3_linear_3_2)"/>
<path d="M213.093 39.7022V18.411C213.093 17.2421 213.435 16.3157 214.115 15.6318C214.795 14.948 215.698 14.61 216.823 14.61H221.411V18.0134H218.186C217.518 18.0134 217.185 18.3713 217.185 19.0869V21.9894H222.059V25.3928H217.185V39.6943H213.097L213.093 39.7022Z" fill="black"/>
<path d="M231.649 40.2032C229.88 40.2032 228.297 39.8374 226.898 39.1098C225.498 38.3822 224.401 37.3405 223.602 35.9927C222.803 34.6448 222.401 33.0226 222.401 31.1341V30.5615C222.401 28.6729 222.803 27.0468 223.602 25.687C224.401 24.3233 225.502 23.2855 226.898 22.5699C228.297 21.8542 229.88 21.4964 231.649 21.4964C233.418 21.4964 234.993 21.8542 236.38 22.5699C237.768 23.2855 238.857 24.3272 239.661 25.687C240.46 27.0508 240.861 28.6729 240.861 30.5615V31.1341C240.861 33.0226 240.46 34.6408 239.661 35.9927C238.861 37.3445 237.768 38.3822 236.38 39.1098C234.993 39.8374 233.418 40.2032 231.649 40.2032ZM231.649 36.5493C233.156 36.5493 234.384 36.0642 235.343 35.0981C236.297 34.1319 236.778 32.7761 236.778 31.0307V30.6728C236.778 28.9274 236.301 27.5716 235.343 26.6054C234.388 25.6393 233.156 25.1542 231.649 25.1542C230.142 25.1542 228.914 25.6393 227.955 26.6054C227.001 27.5716 226.52 28.9314 226.52 30.6728V31.0307C226.52 32.7761 226.997 34.1319 227.955 35.0981C228.91 36.0642 230.142 36.5493 231.649 36.5493Z" fill="black"/>
<path d="M242.575 39.7022V21.9934H246.626V24.037H247.235C247.497 23.2975 247.938 22.7607 248.563 22.4228C249.183 22.0888 249.926 21.9218 250.785 21.9218H252.936V25.5797H250.714C249.517 25.5797 248.551 25.8977 247.811 26.5299C247.072 27.1621 246.702 28.1362 246.702 29.4522V39.7022H242.579H242.575Z" fill="black"/>
<path d="M253.441 30.9194V30.3826C253.441 28.5179 253.811 26.9235 254.554 25.5956C255.294 24.2676 256.288 23.2537 257.528 22.55C258.769 21.8462 260.133 21.4924 261.616 21.4924C263.29 21.4924 264.562 21.7906 265.433 22.387C266.303 22.9834 266.943 23.6314 267.349 24.3233H267.957V21.9934H271.973V43.0699C271.973 44.2388 271.639 45.1652 270.971 45.8491C270.303 46.5289 269.393 46.8709 268.248 46.8709H256.348V43.2846H266.848C267.54 43.2846 267.886 42.9267 267.886 42.2111V37.0861H267.277C267.015 37.4916 266.657 37.9051 266.204 38.3226C265.751 38.7401 265.15 39.0939 264.411 39.3802C263.671 39.6665 262.737 39.8096 261.616 39.8096C260.133 39.8096 258.773 39.4557 257.528 38.752C256.284 38.0482 255.294 37.0304 254.554 35.7064C253.815 34.3784 253.441 32.7841 253.441 30.9194ZM262.761 36.1915C264.244 36.1915 265.472 35.7183 266.454 34.776C267.433 33.8337 267.926 32.5137 267.926 30.816V30.4582C267.926 28.7366 267.44 27.4126 266.474 26.4782C265.508 25.5479 264.272 25.0787 262.765 25.0787C261.258 25.0787 260.045 25.5439 259.055 26.4782C258.065 27.4086 257.568 28.7366 257.568 30.4582V30.816C257.568 32.5137 258.065 33.8337 259.055 34.776C260.045 35.7183 261.282 36.1915 262.765 36.1915H262.761Z" fill="black"/>
<path d="M282.521 40.2032C280.752 40.2032 279.193 39.8255 277.846 39.074C276.494 38.3226 275.444 37.257 274.693 35.8853C273.941 34.5096 273.563 32.9034 273.563 31.0625V30.6331C273.563 28.7684 273.933 27.1581 274.677 25.7944C275.416 24.4306 276.458 23.373 277.794 22.6216C279.134 21.8701 280.672 21.4924 282.418 21.4924C284.163 21.4924 285.642 21.8701 286.935 22.6216C288.227 23.373 289.229 24.4306 289.944 25.7944C290.66 27.1581 291.018 28.7445 291.018 30.5615V32.0326H277.718C277.766 33.4202 278.255 34.5295 279.189 35.3645C280.12 36.1994 281.269 36.6209 282.629 36.6209C283.988 36.6209 284.959 36.3267 285.603 35.7422C286.247 35.1577 286.736 34.4937 287.074 33.7542L290.477 35.5116C290.143 36.1557 289.658 36.8435 289.026 37.5711C288.394 38.2987 287.551 38.9229 286.497 39.4358C285.444 39.9487 284.12 40.2072 282.517 40.2072L282.521 40.2032ZM277.754 28.9115H286.823C286.728 27.7426 286.279 26.8082 285.479 26.1164C284.68 25.4246 283.646 25.0787 282.378 25.0787C281.11 25.0787 280.012 25.4246 279.225 26.1164C278.438 26.8082 277.945 27.7426 277.754 28.9115Z" fill="black"/>
<path d="M20.0893 24.7065C22.4565 24.7065 24.3749 26.6284 24.3749 29C24.3749 31.3716 22.4565 33.2935 20.0893 33.2935C17.7221 33.2935 15.8037 31.3716 15.8037 29C15.8037 26.6284 17.7221 24.7065 20.0893 24.7065ZM0 29C0 30.8543 1.50134 32.3584 3.35219 32.3584C5.20304 32.3584 6.70438 30.8543 6.70438 29C6.70438 27.1457 5.20304 25.6416 3.35219 25.6416C1.50134 25.6416 0 27.1457 0 29ZM16.7371 46.743C16.7371 48.5973 18.2384 50.1014 20.0893 50.1014C21.9401 50.1014 23.4415 48.5973 23.4415 46.743C23.4415 44.8887 21.9401 43.3846 20.0893 43.3846C18.2384 43.3846 16.7371 44.8887 16.7371 46.743ZM33.5497 11.257C33.5497 13.1113 35.051 14.6154 36.9019 14.6154C38.7527 14.6154 40.2541 13.1113 40.2541 11.257C40.2541 9.40272 38.7527 7.8986 36.9019 7.8986C35.051 7.8986 33.5497 9.40272 33.5497 11.257ZM33.5497 46.743C33.5497 48.5973 35.051 50.1014 36.9019 50.1014C38.7527 50.1014 40.2541 48.5973 40.2541 46.743C40.2541 44.8887 38.7527 43.3846 36.9019 43.3846C35.051 43.3846 33.5497 44.8887 33.5497 46.743ZM8.63069 34.4077C6.94665 36.0709 6.9268 38.7927 8.587 40.4798C10.2472 42.167 12.9639 42.1869 14.6479 40.5236C16.332 38.8603 16.3518 36.1386 14.6916 34.4514C13.0314 32.7643 10.3147 32.7444 8.63069 34.4077ZM7.35575 20.7791C7.35575 23.1507 9.27412 25.0726 11.6413 25.0726C14.0085 25.0726 15.9269 23.1507 15.9269 20.7791C15.9269 18.4075 14.0085 16.4856 11.6413 16.4856C9.27412 16.4856 7.35575 18.4075 7.35575 20.7791ZM49.4289 29C49.4289 31.3716 51.3473 33.2935 53.7144 33.2935C56.0816 33.2935 58 31.3716 58 29C58 26.6284 56.0816 24.7065 53.7144 24.7065C51.3473 24.7065 49.4289 26.6284 49.4289 29ZM42.2598 34.4077C40.5758 36.0709 40.5559 38.7927 42.2161 40.4798C43.8763 42.167 46.593 42.1869 48.2771 40.5236C49.9611 38.8603 49.981 36.1386 48.3208 34.4514C46.6605 32.7643 43.9438 32.7444 42.2598 34.4077ZM40.9809 20.7791C40.9809 23.1507 42.8993 25.0726 45.2665 25.0726C47.6336 25.0726 49.552 23.1507 49.552 20.7791C49.552 18.4075 47.6336 16.4856 45.2665 16.4856C42.8993 16.4856 40.9809 18.4075 40.9809 20.7791ZM25.9159 2.60236C25.9159 4.03883 27.0796 5.20472 28.5135 5.20472C29.9473 5.20472 31.111 4.03883 31.111 2.60236C31.111 1.16589 29.9473 0 28.5135 0C27.0796 0 25.9159 1.16589 25.9159 2.60236ZM25.9159 55.3976C25.9159 56.8341 27.0796 58 28.5135 58C29.9473 58 31.111 56.8341 31.111 55.3976C31.111 53.9612 29.9473 52.7953 28.5135 52.7953C27.0796 52.7953 25.9159 53.9612 25.9159 55.3976ZM36.9019 24.7065C36.7509 24.7065 36.6 24.7145 36.4531 24.7304C35.48 24.8338 34.5188 24.424 33.8158 23.7396L33.7522 23.6759C33.0135 22.9597 32.6997 21.949 32.7355 20.9184C32.7752 19.7564 32.3462 18.5786 31.4486 17.7032C30.7178 16.987 29.7963 16.5891 28.8511 16.5015C27.4808 16.3782 26.182 15.841 25.2685 14.8104L24.7363 14.2095C23.9499 13.3222 23.505 12.1881 23.4216 11.0063C23.374 10.294 23.0959 9.58974 22.5836 9.01674C21.4119 7.7076 19.5452 7.50069 18.1272 8.53526C16.4869 9.73299 16.2804 12.0488 17.6069 13.5132C18.0875 14.0424 18.6952 14.3806 19.3426 14.5239C20.5341 14.7865 21.6502 15.3197 22.4605 16.2389L22.8656 16.6965C23.7751 17.7231 24.2954 19.072 24.1882 20.4409C24.1008 21.5471 24.4384 22.6851 25.1891 23.5645C26.1502 24.6906 27.5364 25.184 28.8709 25.0527C29.8718 24.9532 30.8528 25.379 31.5757 26.0793L31.6472 26.147C32.3184 26.7995 32.7077 27.7147 32.6282 28.6498C32.6203 28.7652 32.6123 28.8846 32.6123 29.004C32.6123 29.0597 32.6123 29.1114 32.6123 29.1671C32.6521 30.2614 32.2549 31.3278 31.4685 32.0878L31.3096 32.243C30.5986 32.9354 29.6216 33.2219 28.6286 33.1821C27.1909 33.1184 25.7292 33.779 24.8276 35.1597C23.93 36.5325 23.926 38.3669 24.8118 39.7516C26.3449 42.1391 29.5541 42.4057 31.4565 40.5276C32.3859 39.6084 32.807 38.3709 32.7196 37.1652C32.6441 36.1107 33.0373 35.0801 33.792 34.344L33.8237 34.3122C34.5863 33.572 35.6269 33.2418 36.6874 33.2935C37.0925 33.3134 37.5135 33.2776 37.9425 33.1741C39.5113 32.8001 40.7585 31.5069 41.0881 29.9271C41.664 27.1537 39.563 24.7145 36.8979 24.7145L36.9019 24.7065ZM41.0921 28.0569C40.7664 26.4732 39.5153 25.184 37.9465 24.81C37.5175 24.7065 37.0965 24.6707 36.6914 24.6906C35.6309 24.7423 34.5903 24.412 33.8277 23.6719L33.7959 23.6401C33.0413 22.904 32.6481 21.8734 32.7236 20.8189C32.8109 19.6092 32.3899 18.3717 31.4605 17.4565C29.558 15.5783 26.3488 15.845 24.8157 18.2324C23.93 19.6132 23.934 21.4476 24.8316 22.8244C25.7292 24.2012 27.1948 24.8657 28.6326 24.802C29.6256 24.7582 30.6026 25.0487 31.3136 25.7411L31.4724 25.8963C32.2588 26.6603 32.66 27.7227 32.6163 28.817C32.6163 28.8727 32.6163 28.9244 32.6163 28.9801C32.6163 29.0995 32.6203 29.2189 32.6322 29.3342C32.7116 30.2693 32.3224 31.1846 31.6512 31.8371L31.5797 31.9048C30.8568 32.6051 29.8758 33.0309 28.8749 32.9314C27.5404 32.8001 26.1542 33.2935 25.193 34.4196C24.4384 35.303 24.1048 36.437 24.1922 37.5432C24.2994 38.912 23.7831 40.257 22.8695 41.2876L22.4644 41.7452C21.6542 42.6604 20.5381 43.1936 19.3466 43.4602C18.6992 43.6035 18.0915 43.9377 17.6109 44.4709C16.2843 45.9352 16.4909 48.2511 18.1312 49.4488C19.5491 50.4834 21.4159 50.2765 22.5875 48.9673C23.0999 48.3943 23.3779 47.69 23.4256 46.9778C23.505 45.792 23.9538 44.6619 24.7403 43.7746L25.2725 43.1737C26.186 42.1431 27.4848 41.6059 28.855 41.4826C29.8003 41.395 30.7218 40.9971 31.4526 40.2809C32.3502 39.4015 32.7792 38.2276 32.7394 37.0657C32.7037 36.0351 33.0175 35.0284 33.7562 34.3082L33.8198 34.2445C34.5228 33.5601 35.48 33.1502 36.457 33.2537C36.604 33.2696 36.7549 33.2776 36.9058 33.2776C39.5709 33.2776 41.668 30.8384 41.0961 28.0649L41.0921 28.0569Z" fill="url(#paint4_radial_3_2)"/>
<defs>
<linearGradient id="paint0_linear_3_2" x1="145.991" y1="23.1345" x2="146.21" y2="40.7002" gradientUnits="userSpaceOnUse">
<stop stop-color="#12E1D7"/>
<stop offset="1" stop-color="#307BF2"/>
</linearGradient>
<linearGradient id="paint1_linear_3_2" x1="165.676" y1="22.8879" x2="165.895" y2="40.4537" gradientUnits="userSpaceOnUse">
<stop stop-color="#12E1D7"/>
<stop offset="1" stop-color="#307BF2"/>
</linearGradient>
<linearGradient id="paint2_linear_3_2" x1="184.085" y1="22.6573" x2="184.303" y2="40.2231" gradientUnits="userSpaceOnUse">
<stop stop-color="#12E1D7"/>
<stop offset="1" stop-color="#307BF2"/>
</linearGradient>
<linearGradient id="paint3_linear_3_2" x1="202.756" y1="22.4228" x2="202.978" y2="39.9885" gradientUnits="userSpaceOnUse">
<stop stop-color="#12E1D7"/>
<stop offset="1" stop-color="#307BF2"/>
</linearGradient>
<radialGradient id="paint4_radial_3_2" cx="0" cy="0" r="1" gradientUnits="userSpaceOnUse" gradientTransform="translate(21.2927 9.43853) scale(40.7307 40.8061)">
<stop stop-color="#12E1D7"/>
<stop offset="1" stop-color="#307BF2"/>
</radialGradient>
</defs>
</svg>
