<svg width="64" height="64" viewBox="-6 -6 70 70" fill="none" xmlns="http://www.w3.org/2000/svg">
<rect x="-6" y="-6" width="70" height="70" rx="14" fill="#ffffff"/>
<path d="M20.0893 24.7065C22.4565 24.7065 24.3749 26.6284 24.3749 29C24.3749 31.3716 22.4565 33.2935 20.0893 33.2935C17.7221 33.2935 15.8037 31.3716 15.8037 29C15.8037 26.6284 17.7221 24.7065 20.0893 24.7065ZM0 29C0 30.8543 1.50134 32.3584 3.35219 32.3584C5.20304 32.3584 6.70438 30.8543 6.70438 29C6.70438 27.1457 5.20304 25.6416 3.35219 25.6416C1.50134 25.6416 0 27.1457 0 29ZM16.7371 46.743C16.7371 48.5973 18.2384 50.1014 20.0893 50.1014C21.9401 50.1014 23.4415 48.5973 23.4415 46.743C23.4415 44.8887 21.9401 43.3846 20.0893 43.3846C18.2384 43.3846 16.7371 44.8887 16.7371 46.743ZM33.5497 11.257C33.5497 13.1113 35.051 14.6154 36.9019 14.6154C38.7527 14.6154 40.2541 13.1113 40.2541 11.257C40.2541 9.40272 38.7527 7.8986 36.9019 7.8986C35.051 7.8986 33.5497 9.40272 33.5497 11.257ZM33.5497 46.743C33.5497 48.5973 35.051 50.1014 36.9019 50.1014C38.7527 50.1014 40.2541 48.5973 40.2541 46.743C40.2541 44.8887 38.7527 43.3846 36.9019 43.3846C35.051 43.3846 33.5497 44.8887 33.5497 46.743ZM8.63069 34.4077C6.94665 36.0709 6.9268 38.7927 8.587 40.4798C10.2472 42.167 12.9639 42.1869 14.6479 40.5236C16.332 38.8603 16.3518 36.1386 14.6916 34.4514C13.0314 32.7643 10.3147 32.7444 8.63069 34.4077ZM7.35575 20.7791C7.35575 23.1507 9.27412 25.0726 11.6413 25.0726C14.0085 25.0726 15.9269 23.1507 15.9269 20.7791C15.9269 18.4075 14.0085 16.4856 11.6413 16.4856C9.27412 16.4856 7.35575 18.4075 7.35575 20.7791ZM49.4289 29C49.4289 31.3716 51.3473 33.2935 53.7144 33.2935C56.0816 33.2935 58 31.3716 58 29C58 26.6284 56.0816 24.7065 53.7144 24.7065C51.3473 24.7065 49.4289 26.6284 49.4289 29ZM42.2598 34.4077C40.5758 36.0709 40.5559 38.7927 42.2161 40.4798C43.8763 42.167 46.593 42.1869 48.2771 40.5236C49.9611 38.8603 49.981 36.1386 48.3208 34.4514C46.6605 32.7643 43.9438 32.7444 42.2598 34.4077ZM40.9809 20.7791C40.9809 23.1507 42.8993 25.0726 45.2664 25.0726C47.6336 25.0726 49.552 23.1507 49.552 20.7791C49.552 18.4075 47.6336 16.4856 45.2664 16.4856C42.8993 16.4856 40.9809 18.4075 40.9809 20.7791ZM25.9159 2.60236C25.9159 4.03883 27.0796 5.20472 28.5135 5.20472C29.9473 5.20472 31.111 4.03883 31.111 2.60236C31.111 1.16589 29.9473 0 28.5135 0C27.0796 0 25.9159 1.16589 25.9159 2.60236ZM25.9159 55.3976C25.9159 56.8341 27.0796 58 28.5135 58C29.9473 58 31.111 56.8341 31.111 55.3976C31.111 53.9612 29.9473 52.7953 28.5135 52.7953C27.0796 52.7953 25.9159 53.9612 25.9159 55.3976ZM36.9019 24.7065C36.7509 24.7065 36.6 24.7145 36.4531 24.7304C35.48 24.8338 34.5188 24.424 33.8158 23.7396L33.7522 23.6759C33.0135 22.9597 32.6997 21.949 32.7355 20.9184C32.7752 19.7564 32.3462 18.5786 31.4486 17.7032C30.7178 16.987 29.7963 16.5891 28.8511 16.5015C27.4808 16.3782 26.182 15.841 25.2685 14.8104L24.7363 14.2095C23.9499 13.3222 23.505 12.1881 23.4216 11.0063C23.374 10.294 23.0959 9.58974 22.5836 9.01674C21.4119 7.7076 19.5452 7.50069 18.1272 8.53526C16.4869 9.73299 16.2804 12.0488 17.6069 13.5132C18.0875 14.0424 18.6952 14.3806 19.3426 14.5239C20.5341 14.7865 21.6502 15.3197 22.4605 16.2389L22.8656 16.6965C23.7751 17.7231 24.2954 19.072 24.1882 20.4409C24.1008 21.5471 24.4384 22.6851 25.1891 23.5645C26.1502 24.6906 27.5364 25.184 28.8709 25.0527C29.8718 24.9532 30.8528 25.379 31.5757 26.0793L31.6472 26.147C32.3184 26.7995 32.7077 27.7147 32.6282 28.6498C32.6203 28.7652 32.6123 28.8846 32.6123 29.004C32.6123 29.0597 32.6123 29.1114 32.6123 29.1671C32.6521 30.2614 32.2549 31.3278 31.4685 32.0878L31.3096 32.243C30.5986 32.9354 29.6216 33.2219 28.6286 33.1821C27.1909 33.1184 25.7292 33.779 24.8276 35.1597C23.93 36.5325 23.926 38.3669 24.8118 39.7516C26.3449 42.1391 29.5541 42.4057 31.4565 40.5276C32.3859 39.6084 32.807 38.3709 32.7196 37.1652C32.6441 36.1107 33.0373 35.0801 33.792 34.344L33.8237 34.3122C34.5863 33.572 35.6269 33.2418 36.6874 33.2935C37.0925 33.3134 37.5135 33.2776 37.9425 33.1741C39.5113 32.8001 40.7585 31.5069 41.0881 29.9271C41.664 27.1537 39.563 24.7145 36.8979 24.7145L36.9019 24.7065ZM41.0921 28.0569C40.7664 26.4732 39.5153 25.184 37.9464 24.81C37.5175 24.7065 37.0965 24.6707 36.6914 24.6906C35.6309 24.7423 34.5903 24.412 33.8277 23.6719L33.7959 23.6401C33.0413 22.904 32.6481 21.8734 32.7235 20.8189C32.8109 19.6092 32.3899 18.3717 31.4605 17.4565C29.558 15.5783 26.3488 15.845 24.8157 18.2324C23.93 19.6132 23.934 21.4476 24.8316 22.8244C25.7292 24.2012 27.1948 24.8657 28.6326 24.802C29.6256 24.7582 30.6026 25.0487 31.3136 25.7411L31.4724 25.8963C32.2589 26.6603 32.66 27.7227 32.6163 28.817C32.6163 28.8727 32.6163 28.9244 32.6163 28.9801C32.6163 29.0995 32.6203 29.2189 32.6322 29.3342C32.7116 30.2693 32.3224 31.1846 31.6512 31.8371L31.5797 31.9048C30.8568 32.6051 29.8758 33.0309 28.8749 32.9314C27.5404 32.8001 26.1542 33.2935 25.193 34.4196C24.4384 35.303 24.1048 36.437 24.1922 37.5432C24.2994 38.912 23.7831 40.257 22.8695 41.2876L22.4644 41.7452C21.6542 42.6604 20.5381 43.1936 19.3466 43.4602C18.6992 43.6035 18.0915 43.9377 17.6109 44.4709C16.2843 45.9352 16.4909 48.2511 18.1312 49.4488C19.5491 50.4834 21.4159 50.2765 22.5875 48.9673C23.0999 48.3943 23.3779 47.69 23.4256 46.9778C23.505 45.792 23.9538 44.6619 24.7403 43.7746L25.2725 43.1737C26.186 42.1431 27.4848 41.6059 28.855 41.4826C29.8003 41.395 30.7218 40.9971 31.4526 40.2809C32.3502 39.4015 32.7792 38.2276 32.7394 37.0657C32.7037 36.0351 33.0175 35.0284 33.7562 34.3082L33.8198 34.2445C34.5228 33.5601 35.48 33.1502 36.457 33.2537C36.604 33.2696 36.7549 33.2776 36.9058 33.2776C39.5709 33.2776 41.668 30.8384 41.0961 28.0649L41.0921 28.0569Z" fill="url(#paint0_radial_1_39)"/>
<defs>
<radialGradient id="paint0_radial_1_39" cx="0" cy="0" r="1" gradientUnits="userSpaceOnUse" gradientTransform="translate(21.2927 9.43853) scale(40.7307 40.8061)">
<stop stop-color="#12E1D7"/>
<stop offset="1" stop-color="#307BF2"/>
</radialGradient>
</defs>
</svg>
